<svg id="visual" viewBox="0 0 1920 940" width="1920" height="940" xmlns="http://www.w3.org/2000/svg" xmlns:xlink="http://www.w3.org/1999/xlink" version="1.1"><path d="M0 123L45.7 113.7C91.3 104.3 182.7 85.7 274.2 76.3C365.7 67 457.3 67 548.8 70.2C640.3 73.3 731.7 79.7 823 95.3C914.3 111 1005.7 136 1097 143.8C1188.3 151.7 1279.7 142.3 1371.2 129.8C1462.7 117.3 1554.3 101.7 1645.8 114.2C1737.3 126.7 1828.7 167.3 1874.3 187.7L1920 208L1920 0L1874.3 0C1828.7 0 1737.3 0 1645.8 0C1554.3 0 1462.7 0 1371.2 0C1279.7 0 1188.3 0 1097 0C1005.7 0 914.3 0 823 0C731.7 0 640.3 0 548.8 0C457.3 0 365.7 0 274.2 0C182.7 0 91.3 0 45.7 0L0 0Z" fill="#fff0f0"></path><path d="M0 302L45.7 267.5C91.3 233 182.7 164 274.2 129.5C365.7 95 457.3 95 548.8 112.2C640.3 129.3 731.7 163.7 823 202.8C914.3 242 1005.7 286 1097 301.7C1188.3 317.3 1279.7 304.7 1371.2 276.5C1462.7 248.3 1554.3 204.7 1645.8 206.3C1737.3 208 1828.7 255 1874.3 278.5L1920 302L1920 206L1874.3 185.7C1828.7 165.3 1737.3 124.7 1645.8 112.2C1554.3 99.7 1462.7 115.3 1371.2 127.8C1279.7 140.3 1188.3 149.7 1097 141.8C1005.7 134 914.3 109 823 93.3C731.7 77.7 640.3 71.3 548.8 68.2C457.3 65 365.7 65 274.2 74.3C182.7 83.7 91.3 102.3 45.7 111.7L0 121Z" fill="#ffecec"></path><path d="M0 377L45.7 362.8C91.3 348.7 182.7 320.3 274.2 290.5C365.7 260.7 457.3 229.3 548.8 252.8C640.3 276.3 731.7 354.7 823 417.3C914.3 480 1005.7 527 1097 533.3C1188.3 539.7 1279.7 505.3 1371.2 477.2C1462.7 449 1554.3 427 1645.8 423.8C1737.3 420.7 1828.7 436.3 1874.3 444.2L1920 452L1920 300L1874.3 276.5C1828.7 253 1737.3 206 1645.8 204.3C1554.3 202.7 1462.7 246.3 1371.2 274.5C1279.7 302.7 1188.3 315.3 1097 299.7C1005.7 284 914.3 240 823 200.8C731.7 161.7 640.3 127.3 548.8 110.2C457.3 93 365.7 93 274.2 127.5C182.7 162 91.3 231 45.7 265.5L0 300Z" fill="#ffe9e9"></path><path d="M0 678L45.7 703C91.3 728 182.7 778 274.2 765.5C365.7 753 457.3 678 548.8 667C640.3 656 731.7 709 823 727.7C914.3 746.3 1005.7 730.7 1097 741.7C1188.3 752.7 1279.7 790.3 1371.2 784.2C1462.7 778 1554.3 728 1645.8 696.7C1737.3 665.3 1828.7 652.7 1874.3 646.3L1920 640L1920 450L1874.3 442.2C1828.7 434.3 1737.3 418.7 1645.8 421.8C1554.3 425 1462.7 447 1371.2 475.2C1279.7 503.3 1188.3 537.7 1097 531.3C1005.7 525 914.3 478 823 415.3C731.7 352.7 640.3 274.3 548.8 250.8C457.3 227.3 365.7 258.7 274.2 288.5C182.7 318.3 91.3 346.7 45.7 360.8L0 375Z" fill="#ffd9d9"></path><path d="M0 941L45.7 941C91.3 941 182.7 941 274.2 941C365.7 941 457.3 941 548.8 941C640.3 941 731.7 941 823 941C914.3 941 1005.7 941 1097 941C1188.3 941 1279.7 941 1371.2 941C1462.7 941 1554.3 941 1645.8 941C1737.3 941 1828.7 941 1874.3 941L1920 941L1920 638L1874.3 644.3C1828.7 650.7 1737.3 663.3 1645.8 694.7C1554.3 726 1462.7 776 1371.2 782.2C1279.7 788.3 1188.3 750.7 1097 739.7C1005.7 728.7 914.3 744.3 823 725.7C731.7 707 640.3 654 548.8 665C457.3 676 365.7 751 274.2 763.5C182.7 776 91.3 726 45.7 701L0 676Z" fill="#ffc9c9"></path></svg>