<svg id="visual" viewBox="0 0 1920 940" width="1920" height="940" xmlns="http://www.w3.org/2000/svg" xmlns:xlink="http://www.w3.org/1999/xlink" version="1.1"><rect x="0" y="0" width="1920" height="940" fill="#0c3f59"></rect><path d="M0 624L80 611.5C160 599 320 574 480 591.8C640 609.7 800 670.3 960 682.2C1120 694 1280 657 1440 655C1600 653 1760 686 1840 702.5L1920 719L1920 941L1840 941C1760 941 1600 941 1440 941C1280 941 1120 941 960 941C800 941 640 941 480 941C320 941 160 941 80 941L0 941Z" fill="#0f84ff" stroke-linecap="round" stroke-linejoin="miter"></path></svg>