<svg id="visual" viewBox="0 0 1920 940" width="1920" height="940" xmlns="http://www.w3.org/2000/svg" xmlns:xlink="http://www.w3.org/1999/xlink" version="1.1"><rect x="0" y="0" width="1920" height="940" fill="#00182a"></rect><defs><linearGradient id="grad1_0" x1="51%" y1="0%" x2="100%" y2="100%"><stop offset="9.148936170212767%" stop-color="#1f257c" stop-opacity="1"></stop><stop offset="90.85106382978724%" stop-color="#1f257c" stop-opacity="1"></stop></linearGradient></defs><defs><linearGradient id="grad1_1" x1="51%" y1="0%" x2="100%" y2="100%"><stop offset="9.148936170212767%" stop-color="#1f257c" stop-opacity="1"></stop><stop offset="90.85106382978724%" stop-color="#00182a" stop-opacity="1"></stop></linearGradient></defs><defs><linearGradient id="grad2_0" x1="0%" y1="0%" x2="49%" y2="100%"><stop offset="9.148936170212767%" stop-color="#1f257c" stop-opacity="1"></stop><stop offset="90.85106382978724%" stop-color="#1f257c" stop-opacity="1"></stop></linearGradient></defs><defs><linearGradient id="grad2_1" x1="0%" y1="0%" x2="49%" y2="100%"><stop offset="9.148936170212767%" stop-color="#00182a" stop-opacity="1"></stop><stop offset="90.85106382978724%" stop-color="#1f257c" stop-opacity="1"></stop></linearGradient></defs><g transform="translate(1920, 0)"><path d="M0 611C-99 582.5 -198.1 554 -292.5 506.6C-386.9 459.3 -476.8 393.1 -529.1 305.5C-581.5 217.9 -596.2 109 -611 0L0 0Z" fill="#002356"></path><path d="M0 305.5C-49.5 291.2 -99 277 -146.2 253.3C-193.5 229.6 -238.4 196.5 -264.6 152.8C-290.7 109 -298.1 54.5 -305.5 0L0 0Z" fill="#1f257c"></path></g><g transform="translate(0, 940)"><path d="M0 -611C107.6 -595.4 215.2 -579.9 305.5 -529.1C395.8 -478.4 469 -392.5 517 -298.5C565.1 -204.5 588 -102.2 611 0L0 0Z" fill="#002356"></path><path d="M0 -305.5C53.8 -297.7 107.6 -289.9 152.7 -264.6C197.9 -239.2 234.5 -196.3 258.5 -149.3C282.5 -102.2 294 -51.1 305.5 0L0 0Z" fill="#1f257c"></path></g></svg>